HIERARCHY
ROOT Hips
{
	OFFSET 0.00000 0.00000 0.00000
	CHANNELS 6 Xposition Yposition Zposition Zrotation Yrotation Xrotation 
	JOINT LHipJoint
	{
		OFFSET 0 0 0
		CHANNELS 3 Zrotation Yrotation Xrotation
		JOINT LeftUpLeg
		{
			OFFSET 1.74857 -1.85566 0.69197
			CHANNELS 3 Zrotation Yrotation Xrotation
			JOINT LeftLeg
			{
				OFFSET 2.40003 -6.59403 0.00000
				CHANNELS 3 Zrotation Yrotation Xrotation
				JOINT LeftFoot
				{
					OFFSET 2.82169 -7.75254 0.00000
					CHANNELS 3 Zrotation Yrotation Xrotation
					JOINT LeftToeBase
					{
						OFFSET 0.16466 -0.45240 2.26890
						CHANNELS 3 Zrotation Yrotation Xrotation
						End Site
						{
							OFFSET 0.00000 -0.00000 1.16486
						}
					}
				}
			}
		}
	}
	JOINT RHipJoint
	{
		OFFSET 0 0 0
		CHANNELS 3 Zrotation Yrotation Xrotation
		JOINT RightUpLeg
		{
			OFFSET -1.64169 -1.85566 0.69197
			CHANNELS 3 Zrotation Yrotation Xrotation
			JOINT RightLeg
			{
				OFFSET -2.41814 -6.64379 0.00000
				CHANNELS 3 Zrotation Yrotation Xrotation
				JOINT RightFoot
				{
					OFFSET -2.80588 -7.70911 0.00000
					CHANNELS 3 Zrotation Yrotation Xrotation
					JOINT RightToeBase
					{
						OFFSET -0.19098 -0.52472 2.25401
						CHANNELS 3 Zrotation Yrotation Xrotation
						End Site
						{
							OFFSET -0.00000 -0.00000 1.16333
						}
					}
				}
			}
		}
	}
	JOINT LowerBack
	{
		OFFSET 0 0 0
		CHANNELS 3 Zrotation Yrotation Xrotation
		JOINT Spine
		{
			OFFSET -0.02828 2.14690 -0.11061
			CHANNELS 3 Zrotation Yrotation Xrotation
			JOINT Spine1
			{
				OFFSET -0.00167 2.15299 0.00759
				CHANNELS 3 Zrotation Yrotation Xrotation
				JOINT Neck
				{
					OFFSET 0 0 0
					CHANNELS 3 Zrotation Yrotation Xrotation
					JOINT Neck1
					{
						OFFSET -0.09296 1.90118 0.07197
						CHANNELS 3 Zrotation Yrotation Xrotation
						JOINT Head
						{
							OFFSET 0.08490 1.89526 -0.24604
							CHANNELS 3 Zrotation Yrotation Xrotation
							End Site
							{
								OFFSET 0.03186 1.92109 -0.09483
							}
						}
					}
				}
				JOINT LeftShoulder
				{
					OFFSET 0 0 0
					CHANNELS 3 Zrotation Yrotation Xrotation
					JOINT LeftArm
					{
						OFFSET 3.21569 1.44644 -0.03720
						CHANNELS 3 Zrotation Yrotation Xrotation
						JOINT LeftForeArm
						{
							OFFSET 5.47651 -0.00000 -0.00000
							CHANNELS 3 Zrotation Yrotation Xrotation
							JOINT LeftHand
							{
								OFFSET 3.09058 -0.00000 -0.00000
								CHANNELS 3 Zrotation Yrotation Xrotation
								JOINT LeftFingerBase
								{
									OFFSET 0 0 0
									CHANNELS 3 Zrotation Yrotation Xrotation
									JOINT LeftHandIndex1
									{
										OFFSET 0.77161 -0.00000 -0.00000
										CHANNELS 3 Zrotation Yrotation Xrotation
										End Site
										{
											OFFSET 0.62209 -0.00000 -0.00000
										}
									}
								}
								JOINT LThumb
								{
									OFFSET 0 0 0
									CHANNELS 3 Zrotation Yrotation Xrotation
									End Site
									{
										OFFSET 0.63159 -0.00000 0.63159
									}
								}
							}
						}
					}
				}
				JOINT RightShoulder
				{
					OFFSET 0 0 0
					CHANNELS 3 Zrotation Yrotation Xrotation
					JOINT RightArm
					{
						OFFSET -3.38693 1.28904 -0.07093
						CHANNELS 3 Zrotation Yrotation Xrotation
						JOINT RightForeArm
						{
							OFFSET -5.14182 -0.00000 -0.00000
							CHANNELS 3 Zrotation Yrotation Xrotation
							JOINT RightHand
							{
								OFFSET -3.35565 -0.00000 -0.00000
								CHANNELS 3 Zrotation Yrotation Xrotation
								JOINT RightFingerBase
								{
									OFFSET 0 0 0
									CHANNELS 3 Zrotation Yrotation Xrotation
									JOINT RightHandIndex1
									{
										OFFSET -0.80104 -0.00000 -0.00000
										CHANNELS 3 Zrotation Yrotation Xrotation
										End Site
										{
											OFFSET -0.64582 -0.00000 -0.00000
										}
									}
								}
								JOINT RThumb
								{
									OFFSET 0 0 0
									CHANNELS 3 Zrotation Yrotation Xrotation
									End Site
									{
										OFFSET -0.65568 -0.00000 0.65568
									}
								}
							}
						}
					}
				}
			}
		}
	}
}
MOTION
Frames: 10
Frame Time: .0083333
-0.3627 18.0867 -1.0933 0 0 0 0 0 0 -21 0 0 0 0 0 0 0 0 0 0 0 0 0 0 21 0 0 0 0 0 0 0 0 0 0 0 0 0 0 0 0 0 0 0 0 0 0 -16 0 0 21 0 0 11 0 0 0 -8 0 0 0 0 0 0 0 0 0 0 0 0 0 0 0 0 0 0 0 0 8 0 0 0 0 0 0 0 0 0 0 0 0 0 0 0 0 0
-0.3627 18.0867 -1.0933 2.3956 -3.1899 0.6887 0.0000 0.0000 0.0000 -20.8676 -2.9477 -0.6331 0.5992 4.9553 13.7811 0.4533 9.2329 -19.2613 0.6268 -5.0662 -14.0974 0.0000 0.0000 0.0000 19.0822 8.3561 -3.9604 -1.3121 -7.2555 20.4747 -0.4342 -9.3295 -19.1488 -0.3192 3.6314 -10.0420 -1.4752 1.8693 2.4764 -0.4489 2.4561 1.1482 0.3005 1.2242 -0.2530 -4.7349 -4.8116 -6.0936 0.9119 -6.2023 22.6515 0.5464 -3.2478 8.1924 -0.0000 0.0000 0.0000 -80.4339 12.1399 37.9464 31.3529 -42.0252 -12.3054 -0.0000 0.0000 -11.2770 -3.0258 29.5412 -1.4929 -7.1250 0.0000 -0.0000 -36.1498 55.6141 -10.3935 -0.0000 0.0000 0.0000 85.5306 -4.0202 23.4258 -14.3163 23.1851 -2.9515 0.0000 0.0000 0.2363 -13.3156 15.4143 -3.5996 7.1250 -0.0000 -0.0000 9.6350 -14.3168 7.0555
-0.3606 18.0870 -1.0897 2.3321 -3.2028 0.7144 0.0000 0.0000 0.0000 -20.8208 -2.9935 -0.6059 0.5975 4.9483 13.7611 0.4425 9.4060 -19.3152 0.7063 -5.3713 -14.9706 0.0000 0.0000 0.0000 19.1283 8.2813 -3.9791 -1.3063 -7.2402 20.4289 -0.4388 -9.2848 -19.1548 -0.3029 3.5384 -9.7815 -1.3785 1.8730 2.3681 -0.4460 2.4657 1.1760 0.2538 1.2286 -0.1602 -4.6971 -4.8108 -6.0913 0.9113 -6.2070 22.6747 0.5393 -3.2471 8.1985 0.0000 -0.0000 0.0000 -80.4034 12.1681 38.0054 31.3942 -42.0588 -12.3331 -0.0000 0.0000 -11.3051 -2.9475 29.5046 -1.4526 -7.1250 0.0000 -0.0000 -36.0468 55.5997 -10.3445 0.0000 -0.0000 0.0000 85.5506 -3.9968 23.3871 -14.3246 23.1969 -2.9548 0.0000 0.0000 0.2702 -13.2885 15.5255 -3.6172 7.1250 -0.0000 -0.0000 9.6533 -14.2070 7.0921
-0.3609 18.0877 -1.0884 2.3613 -3.1962 0.7142 0.0000 0.0000 0.0000 -20.8518 -2.9826 -0.6001 0.5968 4.9455 13.7533 0.4398 9.4207 -19.3011 0.7181 -5.4153 -15.0969 0.0000 0.0000 0.0000 19.0991 8.2954 -3.9743 -1.3074 -7.2431 20.4377 -0.4544 -9.2278 -19.2676 -0.2971 3.5051 -9.6882 -1.4104 1.8714 2.3432 -0.4531 2.4634 1.1853 0.2655 1.2273 -0.1378 -4.7005 -4.8199 -6.0760 0.9023 -6.2180 22.6805 0.5362 -3.2535 8.1979 0.0000 -0.0000 0.0000 -80.3973 12.1335 38.0150 31.3595 -42.0306 -12.3099 -0.0000 0.0000 -11.3018 -2.9274 29.4165 -1.4388 -7.1250 0.0000 -0.0000 -35.9549 55.5318 -10.2504 0.0000 -0.0000 0.0000 85.5507 -3.9915 23.4080 -14.3075 23.1726 -2.9480 0.0000 0.0000 0.2683 -13.3383 15.5902 -3.6460 7.1250 -0.0000 -0.0000 9.6199 -14.1377 7.0813
-0.3608 18.0873 -1.0900 2.3628 -3.1911 0.7289 0.0000 0.0000 0.0000 -20.8504 -2.9910 -0.6106 0.5943 4.9352 13.7238 0.4287 9.4639 -19.2237 0.7240 -5.4370 -15.1592 0.0000 0.0000 0.0000 19.0985 8.3035 -4.0089 -1.3081 -7.2451 20.4436 -0.4534 -9.2196 -19.2487 -0.3235 3.6560 -10.1108 -1.4129 1.8727 2.3550 -0.4506 2.4647 1.1750 0.2688 1.2280 -0.1551 -4.7268 -4.8250 -6.0345 0.9337 -6.2298 22.6557 0.5512 -3.2585 8.1843 0.0000 -0.0000 0.0000 -80.4389 12.0917 37.9354 31.2796 -41.9653 -12.2564 -0.0000 0.0000 -11.2288 -2.9919 29.3803 -1.4689 -7.1250 0.0000 -0.0000 -35.9846 55.4896 -10.2218 0.0000 -0.0000 0.0000 85.5446 -4.0073 23.4120 -14.3097 23.1757 -2.9489 0.0000 0.0000 0.2806 -13.3431 15.4690 -3.6198 7.1250 -0.0000 -0.0000 9.6166 -14.2594 7.0535
-0.3606 18.0887 -1.0876 2.3612 -3.1929 0.7416 0.0000 0.0000 0.0000 -20.8582 -2.9723 -0.5919 0.5902 4.9186 13.6766 0.4246 9.4896 -19.2047 0.7209 -5.4257 -15.1267 0.0000 0.0000 0.0000 19.0859 8.1853 -4.0451 -1.3117 -7.2545 20.4716 -0.4560 -9.0957 -19.1561 -0.2980 3.5099 -9.7018 -1.4298 1.8641 2.3115 -0.4322 2.4540 1.1805 0.2989 1.2224 -0.1265 -4.7571 -4.8216 -6.0263 0.9395 -6.2223 22.6518 0.5591 -3.2570 8.1826 -0.0000 -0.0000 0.0000 -80.4977 12.1324 37.8612 31.2858 -41.9703 -12.2605 -0.0000 0.0000 -11.2256 -2.9716 29.3468 -1.4573 -7.1250 0.0000 -0.0000 -35.9381 55.4662 -10.1844 -0.0000 -0.0000 0.0000 85.5203 -4.0001 23.3873 -14.3118 23.1787 -2.9497 0.0000 0.0000 0.2971 -13.2722 15.3746 -3.5785 7.1250 -0.0000 -0.0000 9.6642 -14.3604 7.0685
-0.3589 18.0926 -1.0796 2.3563 -3.1830 0.7364 0.0000 0.0000 0.0000 -20.8767 -2.9522 -0.5322 0.5875 4.9075 13.6450 0.4246 9.4879 -19.2034 0.6882 -5.3037 -14.7768 0.0000 0.0000 0.0000 19.0564 7.8681 -4.0501 -1.3141 -7.2609 20.4906 -0.4797 -8.7446 -19.0745 -0.2496 3.2149 -8.8777 -1.4101 1.8480 2.2222 -0.4164 2.4350 1.2134 0.3084 1.2123 -0.0424 -4.8214 -4.8110 -6.0725 0.9786 -6.2052 22.6884 0.5825 -3.2504 8.2066 0.0000 0.0000 0.0000 -80.5567 12.1365 37.8018 31.2909 -41.9745 -12.2640 -0.0000 0.0000 -11.2853 -2.8932 29.3010 -1.4168 -7.1250 0.0000 -0.0000 -35.8276 55.4443 -10.1266 0.0000 0.0000 0.0000 85.4986 -3.9560 23.3023 -14.2940 23.1534 -2.9427 0.0000 0.0000 0.3870 -13.1880 15.3864 -3.5577 7.1250 -0.0000 -0.0000 9.7208 -14.3554 7.1121
-0.3582 18.0946 -1.0758 2.3545 -3.1607 0.7422 0.0000 0.0000 0.0000 -20.8850 -2.9232 -0.5033 0.5831 4.8894 13.5935 0.4157 9.4457 -19.0630 0.6624 -5.2050 -14.4943 0.0000 0.0000 0.0000 19.0389 7.7231 -4.0658 -1.3171 -7.2690 20.5149 -0.5025 -8.5144 -19.1050 -0.2071 2.9298 -8.0835 -1.3893 1.8448 2.1873 -0.4203 2.4319 1.2205 0.2943 1.2107 -0.0146 -4.7778 -4.8110 -6.0895 0.9417 -6.2029 22.7051 0.5627 -3.2490 8.2124 0.0000 -0.0000 0.0000 -80.5602 12.1386 37.7919 31.2818 -41.9670 -12.2578 -0.0000 0.0000 -11.2806 -2.8627 29.1897 -1.3970 -7.1250 0.0000 -0.0000 -35.7080 55.3593 -10.0083 0.0000 -0.0000 0.0000 85.5036 -3.9736 23.2882 -14.2985 23.1598 -2.9445 0.0000 0.0000 0.3726 -13.1876 15.3804 -3.5562 7.1250 -0.0000 -0.0000 9.7211 -14.3615 7.1111
-0.3578 18.0950 -1.0756 2.3539 -3.1538 0.7515 0.0000 0.0000 0.0000 -20.8853 -2.9236 -0.4846 0.5785 4.8704 13.5393 0.4124 9.4218 -19.0025 0.6409 -5.1216 -14.2557 0.0000 0.0000 0.0000 19.0311 7.6926 -4.1049 -1.3201 -7.2769 20.5385 -0.4927 -8.5435 -19.0269 -0.2161 2.9928 -8.2587 -1.3785 1.8441 2.1830 -0.4248 2.4312 1.2162 0.2838 1.2105 -0.0159 -4.7834 -4.8192 -6.0697 0.9430 -6.2146 22.7049 0.5635 -3.2550 8.2094 0.0000 0.0000 0.0000 -80.5642 12.1361 37.7741 31.2703 -41.9576 -12.2502 -0.0000 0.0000 -11.3058 -2.7947 29.1870 -1.3637 -7.1250 0.0000 -0.0000 -35.6429 55.3703 -9.9964 0.0000 0.0000 0.0000 85.4983 -4.0092 23.3491 -14.3105 23.1769 -2.9492 0.0000 0.0000 0.2607 -13.1763 15.3402 -3.5441 7.1250 -0.0000 -0.0000 9.7286 -14.4028 7.1081
-0.3579 18.0947 -1.0747 2.3834 -3.1717 0.7423 0.0000 0.0000 0.0000 -20.9164 -2.8706 -0.4571 0.5738 4.8512 13.4846 0.4087 9.4471 -18.9866 0.6538 -5.1718 -14.3993 0.0000 0.0000 0.0000 19.0003 7.7199 -4.1018 -1.3232 -7.2851 20.5629 -0.4952 -8.5249 -19.0363 -0.2089 2.9428 -8.1195 -1.4100 1.8558 2.1855 -0.4365 2.4462 1.2198 0.2891 1.2178 -0.0146 -4.8004 -4.8251 -6.0389 0.9905 -6.2323 22.6960 0.5813 -3.2606 8.2034 0.0000 0.0000 0.0000 -80.5635 12.1357 37.7679 31.2595 -41.9488 -12.2430 -0.0000 0.0000 -11.3620 -2.6767 29.1677 -1.3053 -7.1250 0.0000 -0.0000 -35.5178 55.3776 -9.9609 0.0000 0.0000 0.0000 85.4986 -4.0422 23.3893 -14.3135 23.1811 -2.9504 0.0000 0.0000 0.2101 -13.2764 15.3229 -3.5680 7.1250 -0.0000 -0.0000 9.6614 -14.4122 7.0555
